<svg xmlns="http://www.w3.org/2000/svg" enable-background="new 0 0 330 330" viewBox="0 0 330 240" width="24" height="25">
<path d="M 100.606 100.606 L 150 51.212 V 220 c 0 8.284 6.716 15 16 14 c 8.284 0 15 -6.716 15 -15 V 51.212 l 49.394 49.394 C 232.322 103.535 236.161 105 240 105 c 3.839 0 7.678 -1.465 10.606 -4.394 c 5.858 -5.857 5.858 -15.355 0 -21.213 l -75 -75 c -5.857 -5.858 -15.355 -5.858 -21.213 0 l -75 75 c -5.858 5.857 -5.858 15.355 0 21.213 C 85.251 106.463 94.749 106.463 100.606 100.606 z" fill="#f69810" class="color000 svgShape"></path></svg>


	